<svg version="1.1" id="Layer_1" xmlns="http://www.w3.org/2000/svg" xmlns:xlink="http://www.w3.org/1999/xlink" x="0px" y="0px"
	 width="100%" viewBox="0 0 500 500" enable-background="new 0 0 500 500" xml:space="preserve">
<path fill="#000000" opacity="1.000000" stroke="none" 
	d="
M227.000000,501.000000 
	C151.333359,501.000000 76.166702,501.000000 1.000040,501.000000 
	C1.000027,334.333405 1.000027,167.666779 1.000013,1.000130 
	C167.666565,1.000087 334.333130,1.000087 500.999756,1.000043 
	C500.999847,167.666534 500.999847,334.333069 500.999939,500.999817 
	C409.833344,501.000000 318.666656,501.000000 227.000000,501.000000 
M198.554214,124.975601 
	C197.103516,124.975601 195.652832,124.975601 194.202133,124.975601 
	C194.165100,125.180367 194.128052,125.385124 194.091019,125.589890 
	C195.765717,126.025536 197.440430,126.461189 199.830185,127.029770 
	C221.676086,134.748062 239.341766,147.650940 251.275970,168.131393 
	C240.380112,175.981659 229.778931,183.619614 219.138763,191.285660 
	C200.989700,160.056534 170.175079,157.101532 151.154892,164.960373 
	C128.321457,174.394806 114.878517,200.477585 119.195877,227.195450 
	C123.131477,251.550827 143.665771,270.286713 167.987991,271.714355 
	C189.246597,272.962219 211.729767,259.850983 216.835220,242.838181 
	C201.150101,242.838181 185.601105,242.838181 170.193192,242.838181 
	C170.193192,230.606369 170.193192,218.849564 170.193192,207.174408 
	C201.857193,207.174408 233.241943,207.174408 264.606567,207.174408 
	C267.374969,253.597794 238.059692,299.402496 186.605103,310.314087 
	C201.415253,311.003479 216.228500,311.007111 231.041748,311.002594 
	C251.869492,310.996277 272.697601,311.053589 293.524811,310.946503 
	C305.022186,310.887421 315.912811,308.081726 326.142822,302.834229 
	C362.327332,284.273254 367.720154,236.038986 338.978027,211.396652 
	C336.894073,209.609970 334.771729,207.868057 332.644470,206.086243 
	C352.476776,187.410553 347.570923,150.921204 329.219238,137.623077 
	C318.561981,129.900558 306.485504,126.528366 293.673462,126.159927 
	C271.719116,125.528580 249.746384,125.511017 227.780716,125.307434 
	C218.285858,125.219429 208.789337,125.309845 198.554214,124.975601 
M332.421875,378.343750 
	C337.319672,376.955566 339.807739,373.678284 340.333649,368.647095 
	C340.970184,362.557739 338.242401,358.620239 332.260803,356.352783 
	C337.093536,352.945251 339.128204,348.872223 336.903137,343.614807 
	C334.729675,338.479279 330.124634,337.764923 325.271240,337.751740 
	C320.307556,337.738281 315.343842,337.748779 310.424713,337.748779 
	C310.424713,351.728821 310.424713,365.270844 310.424713,378.612579 
	C317.709839,378.612579 324.668335,378.612579 332.421875,378.343750 
M349.885895,369.397308 
	C354.067474,377.206879 360.403168,380.643982 368.628632,379.565186 
	C377.355133,378.420685 382.754791,373.657227 384.202667,364.599091 
	C384.919373,360.115356 384.781006,355.269348 383.910492,350.805481 
	C382.219818,342.135895 375.598511,337.205048 366.761627,337.063141 
	C357.795715,336.919098 350.669983,341.458008 349.155640,350.083832 
	C348.104095,356.073425 349.344849,362.465454 349.885895,369.397308 
M49.067493,363.038147 
	C50.368946,378.397125 66.888992,385.055634 78.069336,374.593903 
	C78.205872,377.777069 78.830368,380.427643 82.792580,378.583099 
	C82.792580,371.462128 82.792580,364.383270 82.792580,357.205109 
	C77.314003,357.205109 72.072601,357.205109 66.624344,357.205109 
	C66.624344,358.375458 66.511147,360.148346 66.640823,360.166260 
	C70.334267,360.677460 74.052147,361.012115 77.766403,361.372009 
	C78.824272,371.647705 74.666122,376.108704 65.074844,374.987823 
	C60.022141,374.397400 55.894672,371.195251 55.159470,365.938141 
	C54.482056,361.094238 54.416576,355.995758 55.139805,351.167938 
	C56.038986,345.165527 60.260693,342.151672 66.291077,341.734558 
	C71.617783,341.366089 76.188248,342.639252 79.157562,347.704529 
	C80.481018,346.922546 81.565453,346.281769 83.596344,345.081787 
	C80.885277,342.735596 78.884941,340.141907 76.247208,338.868439 
	C63.651894,332.787537 50.121738,340.743439 49.040352,354.664398 
	C48.847809,357.143097 49.009361,359.649292 49.067493,363.038147 
M257.960785,361.498840 
	C257.960785,367.279694 257.960785,373.060547 257.960785,379.066956 
	C259.901825,378.967834 261.304138,378.896240 262.951691,378.812134 
	C262.951691,375.462524 262.951660,372.488861 262.951660,369.515228 
	C262.951660,366.591797 262.951691,363.668335 262.951691,360.789124 
	C275.947205,360.238434 275.947723,360.238281 279.773773,371.934113 
	C280.135162,373.038757 280.655212,374.123779 280.810364,375.257751 
	C281.332458,379.073151 283.519379,379.736450 287.499176,378.399231 
	C284.771271,371.798676 282.078369,365.282745 279.317047,358.601288 
	C285.000580,355.173676 286.812439,351.537872 285.152069,345.491760 
	C283.715027,340.258881 280.020294,337.908081 272.720978,337.768005 
	C267.911499,337.675659 263.098816,337.750549 257.960785,337.750549 
	C257.960785,345.555878 257.960785,353.027649 257.960785,361.498840 
M133.841919,367.853760 
	C135.174744,367.853699 136.509201,367.810974 137.840073,367.861847 
	C141.302689,367.994263 145.301102,367.175354 148.043686,368.660431 
	C149.996384,369.717804 149.873398,374.140594 151.418747,376.594116 
	C152.340851,378.058167 154.696228,378.619446 156.407303,379.586548 
	C153.148361,366.659882 148.815018,355.152496 145.180206,343.428558 
	C143.639603,338.459381 141.421799,336.432312 136.032990,338.223907 
	C131.415268,351.470673 126.691895,365.020508 121.915863,378.721436 
	C123.944588,378.721436 125.510971,378.721436 127.128471,378.721436 
	C127.898666,376.423889 128.346344,374.255676 129.339203,372.375397 
	C130.222275,370.703033 131.709518,369.349701 133.841919,367.853760 
M235.505630,337.725250 
	C231.427139,337.725250 227.348663,337.725250 223.344681,337.725250 
	C223.344681,351.844299 223.344681,365.260071 223.344681,378.805359 
	C232.017212,378.805359 240.430527,378.805359 249.158630,378.805359 
	C248.998367,377.368713 248.867065,376.191620 248.710648,374.789307 
	C241.717529,374.789307 235.108917,374.789307 228.470566,374.789307 
	C228.470566,369.644531 228.470566,364.780548 228.470566,359.676208 
	C234.443909,359.676208 240.063873,359.676208 246.177826,359.676208 
	C246.062988,358.067535 245.968872,356.749084 245.856415,355.173492 
	C239.695816,355.173492 234.093155,355.173492 228.404739,355.173492 
	C228.404739,350.637482 228.404739,346.406891 228.404739,341.913025 
	C234.331070,341.913025 239.972824,341.804260 245.607574,341.955872 
	C248.728745,342.039856 249.470398,340.819977 248.319473,337.725281 
	C244.450409,337.725281 240.470566,337.725281 235.505630,337.725250 
M182.355194,375.051453 
	C174.063461,374.680908 169.822861,370.978088 168.872147,362.748413 
	C168.495499,359.488159 168.570892,356.091736 169.024277,352.838654 
	C169.766785,347.511139 172.545197,343.305756 178.063324,342.153564 
	C183.647919,340.987549 189.109146,341.312531 192.552887,347.053375 
	C192.787003,347.443695 193.249069,347.697235 193.748795,348.142395 
	C194.819229,347.347137 195.851349,346.580383 196.914444,345.790588 
	C194.179871,339.397797 188.997894,337.343109 182.842316,337.097198 
	C175.644806,336.809723 169.594955,339.349426 166.110229,345.842560 
	C161.642181,354.167999 161.686417,362.867798 166.232513,371.150055 
	C169.680038,377.430939 175.659073,379.897491 182.618042,379.665070 
	C188.433746,379.470795 193.195038,377.176849 196.082016,371.713531 
	C197.695114,368.660919 197.098221,367.120728 193.360748,366.878876 
	C191.538864,371.540436 188.536942,374.801270 182.355194,375.051453 
M454.101410,343.260742 
	C454.446991,341.566132 454.792572,339.871521 455.173370,338.004272 
	C445.652557,338.004272 436.737213,338.004272 427.822754,338.004272 
	C427.864441,341.791840 427.863892,341.858368 430.954712,341.883942 
	C436.873199,341.932953 442.792358,341.898193 449.576599,341.898193 
	C442.329773,352.255554 435.519196,361.828247 428.925171,371.547852 
	C427.583008,373.526276 427.055908,376.057648 425.991913,378.740509 
	C436.432861,378.740509 445.681366,378.740509 454.900421,378.740509 
	C454.900421,377.481812 454.900421,376.501129 454.900421,375.520477 
	C447.562775,375.520477 440.225098,375.520477 431.548096,375.520477 
	C439.620605,364.005310 446.662262,353.960663 454.101410,343.260742 
M402.903717,350.612610 
	C401.065430,347.453674 399.022217,344.393066 397.446564,341.108124 
	C395.870819,337.823120 393.760040,336.958679 390.390381,338.300934 
	C396.822998,351.388153 408.175354,362.444427 403.617249,378.755432 
	C406.085632,378.755432 407.484467,378.755432 409.150940,378.755432 
	C409.150940,376.682312 409.323792,374.855408 409.120331,373.071442 
	C408.334076,366.177032 410.128632,360.104156 413.968262,354.316742 
	C417.373871,349.183472 420.135773,343.623138 423.181824,338.251343 
	C422.698944,337.908142 422.216095,337.564972 421.733215,337.221802 
	C412.529999,340.101654 413.104858,351.291443 406.494843,356.665558 
	C405.414520,354.891357 404.317932,353.090363 402.903717,350.612610 
M98.767593,370.421539 
	C98.767593,359.663483 98.767593,348.905457 98.767593,337.981659 
	C96.862648,337.981659 95.452309,337.981659 94.037064,337.981659 
	C94.037064,351.766144 94.037064,365.300018 94.037064,379.025360 
	C101.508636,379.025360 108.662079,379.137787 115.804382,378.906311 
	C116.897812,378.870850 117.939789,377.247925 119.005569,376.359192 
	C118.707756,375.897461 118.409943,375.435730 118.112129,374.973999 
	C112.818161,374.973999 107.516609,374.804413 102.233231,375.040955 
	C99.313980,375.171661 98.305313,374.160400 98.767593,370.421539 
M210.777267,374.261292 
	C210.777267,362.177887 210.777267,350.094482 210.777267,337.690460 
	C208.718582,337.813690 207.313141,337.897797 205.886642,337.983185 
	C205.886642,351.813599 205.886642,365.259613 205.886642,378.661041 
	C209.160583,379.577454 211.433624,379.351593 210.777267,374.261292 
z"/>
<path fill="#FDFDFD" opacity="1.000000" stroke="none" 
	d="
M199.293579,125.319206 
	C208.789337,125.309845 218.285858,125.219429 227.780716,125.307434 
	C249.746384,125.511017 271.719116,125.528580 293.673462,126.159927 
	C306.485504,126.528366 318.561981,129.900558 329.219238,137.623077 
	C347.570923,150.921204 352.476776,187.410553 332.644470,206.086243 
	C334.771729,207.868057 336.894073,209.609970 338.978027,211.396652 
	C367.720154,236.038986 362.327332,284.273254 326.142822,302.834229 
	C315.912811,308.081726 305.022186,310.887421 293.524811,310.946503 
	C272.697601,311.053589 251.869492,310.996277 231.041748,311.002594 
	C216.228500,311.007111 201.415253,311.003479 186.605103,310.314087 
	C238.059692,299.402496 267.374969,253.597794 264.606567,207.174408 
	C233.241943,207.174408 201.857193,207.174408 170.193192,207.174408 
	C170.193192,218.849564 170.193192,230.606369 170.193192,242.838181 
	C185.601105,242.838181 201.150101,242.838181 216.835220,242.838181 
	C211.729767,259.850983 189.246597,272.962219 167.987991,271.714355 
	C143.665771,270.286713 123.131477,251.550827 119.195877,227.195450 
	C114.878517,200.477585 128.321457,174.394806 151.154892,164.960373 
	C170.175079,157.101532 200.989700,160.056534 219.138763,191.285660 
	C229.778931,183.619614 240.380112,175.981659 251.275970,168.131393 
	C239.341766,147.650940 221.676086,134.748062 199.448196,126.694809 
	C199.141998,126.012978 199.217789,125.666092 199.293579,125.319206 
M317.630402,255.089661 
	C318.380615,241.248276 312.668304,231.357666 300.574677,229.792725 
	C289.232727,228.325058 277.551636,229.478409 266.139526,229.478409 
	C266.139526,244.857422 266.139526,260.396667 266.139526,276.000702 
	C276.128754,276.000702 285.777252,276.248260 295.407928,275.939392 
	C308.052002,275.533875 315.497131,268.579712 317.630402,255.089661 
M279.477478,194.961517 
	C283.625916,194.739517 287.831940,194.877151 291.911316,194.223862 
	C301.699005,192.656403 306.111084,187.149216 305.907562,177.406815 
	C305.712433,168.066360 300.576965,161.961578 291.007690,161.215393 
	C282.782166,160.573990 274.466949,161.082428 265.991119,161.082428 
	C265.991119,172.326721 265.991119,183.406418 265.991119,194.961517 
	C270.243561,194.961517 274.366302,194.961517 279.477478,194.961517 
z"/>
<path fill="#F5F5F5" opacity="1.000000" stroke="none" 
	d="
M332.024353,378.478149 
	C324.668335,378.612579 317.709839,378.612579 310.424713,378.612579 
	C310.424713,365.270844 310.424713,351.728821 310.424713,337.748779 
	C315.343842,337.748779 320.307556,337.738281 325.271240,337.751740 
	C330.124634,337.764923 334.729675,338.479279 336.903137,343.614807 
	C339.128204,348.872223 337.093536,352.945251 332.260803,356.352783 
	C338.242401,358.620239 340.970184,362.557739 340.333649,368.647095 
	C339.807739,373.678284 337.319672,376.955566 332.024353,378.478149 
M332.633850,360.742981 
	C326.873810,359.985046 321.113739,359.227142 315.331299,358.466278 
	C315.331299,364.760406 315.331299,369.698395 315.331299,374.981995 
	C319.197571,374.981995 322.830536,375.076904 326.456909,374.962921 
	C334.886230,374.697937 337.853485,368.693054 332.633850,360.742981 
M315.090210,348.493835 
	C315.090210,350.583679 315.090210,352.673523 315.090210,354.939728 
	C319.442352,354.939728 323.245300,355.171204 327.006439,354.873596 
	C330.649780,354.585297 332.630188,352.153656 332.752747,348.558350 
	C332.865936,345.238464 331.418793,342.469727 327.895355,342.137360 
	C323.718018,341.743317 319.475067,342.044678 315.090210,342.044678 
	C315.090210,344.255829 315.090210,345.896576 315.090210,348.493835 
z"/>
<path fill="#F0F0F0" opacity="1.000000" stroke="none" 
	d="
M349.723694,369.037506 
	C349.344849,362.465454 348.104095,356.073425 349.155640,350.083832 
	C350.669983,341.458008 357.795715,336.919098 366.761627,337.063141 
	C375.598511,337.205048 382.219818,342.135895 383.910492,350.805481 
	C384.781006,355.269348 384.919373,360.115356 384.202667,364.599091 
	C382.754791,373.657227 377.355133,378.420685 368.628632,379.565186 
	C360.403168,380.643982 354.067474,377.206879 349.723694,369.037506 
M354.916840,368.223206 
	C358.355072,373.911316 363.365692,376.136505 369.618683,374.752014 
	C375.131592,373.531403 378.430084,369.883362 379.087952,363.402618 
	C379.470093,359.637726 379.458008,355.731720 378.905518,351.995361 
	C377.937683,345.450562 373.481873,341.992615 366.732452,341.845093 
	C359.788025,341.693268 355.021729,344.701416 354.147095,351.297516 
	C353.446289,356.583008 354.394135,362.087067 354.916840,368.223206 
z"/>
<path fill="#F1F1F1" opacity="1.000000" stroke="none" 
	d="
M49.037453,362.590454 
	C49.009361,359.649292 48.847809,357.143097 49.040352,354.664398 
	C50.121738,340.743439 63.651894,332.787537 76.247208,338.868439 
	C78.884941,340.141907 80.885277,342.735596 83.596344,345.081787 
	C81.565453,346.281769 80.481018,346.922546 79.157562,347.704529 
	C76.188248,342.639252 71.617783,341.366089 66.291077,341.734558 
	C60.260693,342.151672 56.038986,345.165527 55.139805,351.167938 
	C54.416576,355.995758 54.482056,361.094238 55.159470,365.938141 
	C55.894672,371.195251 60.022141,374.397400 65.074844,374.987823 
	C74.666122,376.108704 78.824272,371.647705 77.766220,361.373749 
	C74.052147,361.012115 70.334267,360.677460 66.640823,360.166260 
	C66.511147,360.148346 66.624344,358.375458 66.624344,357.205109 
	C72.072601,357.205109 77.314003,357.205109 82.792580,357.205109 
	C82.792580,364.383270 82.792580,371.462128 82.792580,378.583099 
	C78.830368,380.427643 78.205872,377.777069 78.069336,374.593903 
	C66.888992,385.055634 50.368946,378.397125 49.037453,362.590454 
z"/>
<path fill="#F3F3F3" opacity="1.000000" stroke="none" 
	d="
M257.960785,360.999146 
	C257.960785,353.027649 257.960785,345.555878 257.960785,337.750549 
	C263.098816,337.750549 267.911499,337.675659 272.720978,337.768005 
	C280.020294,337.908081 283.715027,340.258881 285.152069,345.491760 
	C286.812439,351.537872 285.000580,355.173676 279.317047,358.601288 
	C282.078369,365.282745 284.771271,371.798676 287.499176,378.399231 
	C283.519379,379.736450 281.332458,379.073151 280.810364,375.257751 
	C280.655212,374.123779 280.135162,373.038757 279.773773,371.934113 
	C275.947723,360.238281 275.947205,360.238434 262.951691,360.789124 
	C262.951691,363.668335 262.951660,366.591797 262.951660,369.515228 
	C262.951660,372.488861 262.951691,375.462524 262.951691,378.812134 
	C261.304138,378.896240 259.901825,378.967834 257.960785,379.066956 
	C257.960785,373.060547 257.960785,367.279694 257.960785,360.999146 
M279.168182,344.596710 
	C274.388000,339.797333 268.582581,342.840088 263.328613,341.916809 
	C263.328613,347.057953 263.328613,351.596588 263.328613,356.209747 
	C266.202545,356.209747 268.698059,356.228210 271.193268,356.206360 
	C279.419556,356.134308 281.288055,353.719391 279.168182,344.596710 
z"/>
<path fill="#F1F1F1" opacity="1.000000" stroke="none" 
	d="
M133.386017,367.854645 
	C131.709518,369.349701 130.222275,370.703033 129.339203,372.375397 
	C128.346344,374.255676 127.898666,376.423889 127.128471,378.721436 
	C125.510971,378.721436 123.944588,378.721436 121.915863,378.721436 
	C126.691895,365.020508 131.415268,351.470673 136.032990,338.223907 
	C141.421799,336.432312 143.639603,338.459381 145.180206,343.428558 
	C148.815018,355.152496 153.148361,366.659882 156.407303,379.586548 
	C154.696228,378.619446 152.340851,378.058167 151.418747,376.594116 
	C149.873398,374.140594 149.996384,369.717804 148.043686,368.660431 
	C145.301102,367.175354 141.302689,367.994263 137.840073,367.861847 
	C136.509201,367.810974 135.174744,367.853699 133.386017,367.854645 
M132.758743,362.641174 
	C137.283981,363.082794 141.809235,363.524414 147.092560,364.040009 
	C144.423538,356.211945 142.164322,349.585876 139.549988,341.918243 
	C137.072220,349.298004 134.974442,355.545929 132.758743,362.641174 
z"/>
<path fill="#EFEFEF" opacity="1.000000" stroke="none" 
	d="
M235.998169,337.725281 
	C240.470566,337.725281 244.450409,337.725281 248.319473,337.725281 
	C249.470398,340.819977 248.728745,342.039856 245.607574,341.955872 
	C239.972824,341.804260 234.331070,341.913025 228.404739,341.913025 
	C228.404739,346.406891 228.404739,350.637482 228.404739,355.173492 
	C234.093155,355.173492 239.695816,355.173492 245.856415,355.173492 
	C245.968872,356.749084 246.062988,358.067535 246.177826,359.676208 
	C240.063873,359.676208 234.443909,359.676208 228.470566,359.676208 
	C228.470566,364.780548 228.470566,369.644531 228.470566,374.789307 
	C235.108917,374.789307 241.717529,374.789307 248.710648,374.789307 
	C248.867065,376.191620 248.998367,377.368713 249.158630,378.805359 
	C240.430527,378.805359 232.017212,378.805359 223.344681,378.805359 
	C223.344681,365.260071 223.344681,351.844299 223.344681,337.725250 
	C227.348663,337.725250 231.427139,337.725250 235.998169,337.725281 
z"/>
<path fill="#EEEEEE" opacity="1.000000" stroke="none" 
	d="
M182.770020,375.039337 
	C188.536942,374.801270 191.538864,371.540436 193.360748,366.878876 
	C197.098221,367.120728 197.695114,368.660919 196.082016,371.713531 
	C193.195038,377.176849 188.433746,379.470795 182.618042,379.665070 
	C175.659073,379.897491 169.680038,377.430939 166.232513,371.150055 
	C161.686417,362.867798 161.642181,354.167999 166.110229,345.842560 
	C169.594955,339.349426 175.644806,336.809723 182.842316,337.097198 
	C188.997894,337.343109 194.179871,339.397797 196.914444,345.790588 
	C195.851349,346.580383 194.819229,347.347137 193.748795,348.142395 
	C193.249069,347.697235 192.787003,347.443695 192.552887,347.053375 
	C189.109146,341.312531 183.647919,340.987549 178.063324,342.153564 
	C172.545197,343.305756 169.766785,347.511139 169.024277,352.838654 
	C168.570892,356.091736 168.495499,359.488159 168.872147,362.748413 
	C169.822861,370.978088 174.063461,374.680908 182.770020,375.039337 
z"/>
<path fill="#F5F5F5" opacity="1.000000" stroke="none" 
	d="
M453.902649,343.588379 
	C446.662262,353.960663 439.620605,364.005310 431.548096,375.520477 
	C440.225098,375.520477 447.562775,375.520477 454.900421,375.520477 
	C454.900421,376.501129 454.900421,377.481812 454.900421,378.740509 
	C445.681366,378.740509 436.432861,378.740509 425.991913,378.740509 
	C427.055908,376.057648 427.583008,373.526276 428.925171,371.547852 
	C435.519196,361.828247 442.329773,352.255554 449.576599,341.898193 
	C442.792358,341.898193 436.873199,341.932953 430.954712,341.883942 
	C427.863892,341.858368 427.864441,341.791840 427.822754,338.004272 
	C436.737213,338.004272 445.652557,338.004272 455.173370,338.004272 
	C454.792572,339.871521 454.446991,341.566132 453.902649,343.588379 
z"/>
<path fill="#F1F1F1" opacity="1.000000" stroke="none" 
	d="
M403.062500,350.950989 
	C404.317932,353.090363 405.414520,354.891357 406.494843,356.665558 
	C413.104858,351.291443 412.529999,340.101654 421.733215,337.221802 
	C422.216095,337.564972 422.698944,337.908142 423.181824,338.251343 
	C420.135773,343.623138 417.373871,349.183472 413.968262,354.316742 
	C410.128632,360.104156 408.334076,366.177032 409.120331,373.071442 
	C409.323792,374.855408 409.150940,376.682312 409.150940,378.755432 
	C407.484467,378.755432 406.085632,378.755432 403.617249,378.755432 
	C408.175354,362.444427 396.822998,351.388153 390.390381,338.300934 
	C393.760040,336.958679 395.870819,337.823120 397.446564,341.108124 
	C399.022217,344.393066 401.065430,347.453674 403.062500,350.950989 
z"/>
<path fill="#F1F1F1" opacity="1.000000" stroke="none" 
	d="
M98.767639,370.912109 
	C98.305313,374.160400 99.313980,375.171661 102.233231,375.040955 
	C107.516609,374.804413 112.818161,374.973999 118.112129,374.973999 
	C118.409943,375.435730 118.707756,375.897461 119.005569,376.359192 
	C117.939789,377.247925 116.897812,378.870850 115.804382,378.906311 
	C108.662079,379.137787 101.508636,379.025360 94.037064,379.025360 
	C94.037064,365.300018 94.037064,351.766144 94.037064,337.981659 
	C95.452309,337.981659 96.862648,337.981659 98.767593,337.981659 
	C98.767593,348.905457 98.767593,359.663483 98.767639,370.912109 
z"/>
<path fill="#EEEEEE" opacity="1.000000" stroke="none" 
	d="
M210.777252,374.728180 
	C211.433624,379.351593 209.160583,379.577454 205.886642,378.661041 
	C205.886642,365.259613 205.886642,351.813599 205.886642,337.983185 
	C207.313141,337.897797 208.718582,337.813690 210.777267,337.690460 
	C210.777267,350.094482 210.777267,362.177887 210.777252,374.728180 
z"/>
<path fill="#626262" opacity="1.000000" stroke="none" 
	d="
M198.923904,125.147400 
	C199.217789,125.666092 199.141998,126.012978 199.090668,126.628349 
	C197.440430,126.461189 195.765717,126.025536 194.091019,125.589890 
	C194.128052,125.385124 194.165100,125.180367 194.202133,124.975601 
	C195.652832,124.975601 197.103516,124.975601 198.923904,125.147400 
z"/>
<path fill="#010101" opacity="1.000000" stroke="none" 
	d="
M317.573975,255.508362 
	C315.497131,268.579712 308.052002,275.533875 295.407928,275.939392 
	C285.777252,276.248260 276.128754,276.000702 266.139526,276.000702 
	C266.139526,260.396667 266.139526,244.857422 266.139526,229.478409 
	C277.551636,229.478409 289.232727,228.325058 300.574677,229.792725 
	C312.668304,231.357666 318.380615,241.248276 317.573975,255.508362 
z"/>
<path fill="#020202" opacity="1.000000" stroke="none" 
	d="
M278.983276,194.961517 
	C274.366302,194.961517 270.243561,194.961517 265.991119,194.961517 
	C265.991119,183.406418 265.991119,172.326721 265.991119,161.082428 
	C274.466949,161.082428 282.782166,160.573990 291.007690,161.215393 
	C300.576965,161.961578 305.712433,168.066360 305.907562,177.406815 
	C306.111084,187.149216 301.699005,192.656403 291.911316,194.223862 
	C287.831940,194.877151 283.625916,194.739517 278.983276,194.961517 
z"/>
<path fill="#060606" opacity="1.000000" stroke="none" 
	d="
M332.964600,360.993622 
	C337.853485,368.693054 334.886230,374.697937 326.456909,374.962921 
	C322.830536,375.076904 319.197571,374.981995 315.331299,374.981995 
	C315.331299,369.698395 315.331299,364.760406 315.331299,358.466278 
	C321.113739,359.227142 326.873810,359.985046 332.964600,360.993622 
z"/>
<path fill="#060606" opacity="1.000000" stroke="none" 
	d="
M315.090210,348.015564 
	C315.090210,345.896576 315.090210,344.255829 315.090210,342.044678 
	C319.475067,342.044678 323.718018,341.743317 327.895355,342.137360 
	C331.418793,342.469727 332.865936,345.238464 332.752747,348.558350 
	C332.630188,352.153656 330.649780,354.585297 327.006439,354.873596 
	C323.245300,355.171204 319.442352,354.939728 315.090210,354.939728 
	C315.090210,352.673523 315.090210,350.583679 315.090210,348.015564 
z"/>
<path fill="#040404" opacity="1.000000" stroke="none" 
	d="
M354.763580,367.858673 
	C354.394135,362.087067 353.446289,356.583008 354.147095,351.297516 
	C355.021729,344.701416 359.788025,341.693268 366.732452,341.845093 
	C373.481873,341.992615 377.937683,345.450562 378.905518,351.995361 
	C379.458008,355.731720 379.470093,359.637726 379.087952,363.402618 
	C378.430084,369.883362 375.131592,373.531403 369.618683,374.752014 
	C363.365692,376.136505 358.355072,373.911316 354.763580,367.858673 
z"/>
<path fill="#010101" opacity="1.000000" stroke="none" 
	d="
M279.417297,344.940674 
	C281.288055,353.719391 279.419556,356.134308 271.193268,356.206360 
	C268.698059,356.228210 266.202545,356.209747 263.328613,356.209747 
	C263.328613,351.596588 263.328613,347.057953 263.328613,341.916809 
	C268.582581,342.840088 274.388000,339.797333 279.417297,344.940674 
z"/>
<path fill="#121212" opacity="1.000000" stroke="none" 
	d="
M132.817719,362.217529 
	C134.974442,355.545929 137.072220,349.298004 139.549988,341.918243 
	C142.164322,349.585876 144.423538,356.211945 147.092560,364.040009 
	C141.809235,363.524414 137.283981,363.082794 132.817719,362.217529 
z"/>
</svg>